<?xml version="1.0" standalone="no"?><!DOCTYPE svg PUBLIC "-//W3C//DTD SVG 1.1//EN" "http://www.w3.org/Graphics/SVG/1.1/DTD/svg11.dtd"><svg t="1747408558828" class="icon" viewBox="0 0 1024 1024" version="1.1" xmlns="http://www.w3.org/2000/svg" p-id="8674" xmlns:xlink="http://www.w3.org/1999/xlink" width="81" height="81"><path d="M408.8832 520.3456a331.264 331.264 0 0 0 62.2592 53.76 341.1456 341.1456 0 0 0 62.5664 33.024 473.216 473.216 0 0 0 97.5104-130.8416l144.0256-285.184-251.136 197.4272a473.9072 473.9072 0 0 0-115.2 131.84z m-20.48 177.536q-26.4192-17.6896-51.2-37.76l-87.04 172.7744 156.5952-123.1104a1160.0896 1160.0896 0 0 1-18.4576-11.8016z" p-id="8675" fill="#ffffff"></path><path d="M711.3472 420.4032c47.2064 62.5664 60.9792 132.096 28.9792 179.968-46.72 69.888-173.3888 67.2-282.9056-5.9904s-160.4352-189.1584-113.7152-259.072c32-47.872 101.504-61.696 177.408-42.0864-131.2512-55.7312-256-50.2272-304.64 22.0928-60.7744 90.9824 22.2208 253.44 185.3696 362.1888s344.704 123.6224 405.504 32.6912c48.4608-72.4224 5.632-189.8752-96-289.792z" p-id="8676" fill="#ffffff"></path></svg>